<?xml version="1.0" encoding="utf-8"?>
<!-- Generator: Adobe Illustrator 25.2.0, SVG Export Plug-In . SVG Version: 6.00 Build 0)  -->
<svg version="1.1" id="Layer_1" xmlns="http://www.w3.org/2000/svg" xmlns:xlink="http://www.w3.org/1999/xlink" x="0px" y="0px"
	 viewBox="0 0 1393.3 1080" style="enable-background:new 0 0 1393.3 1080;" xml:space="preserve">
<style type="text/css">
	.st0{fill:#C81B23;}
</style>
<path class="st0" d="M1393.3,930.7C1242,796.7,1081,667.6,689.4,643.2S0,945.3,0,945.3V0l383.3-0.1l313.5,328.6L1011.4-0.1L1393.3,0
	V930.7z"/>
<path class="st0" d="M696.7,744.2c-347.4-2.6-343.1,337.6-341.7,335.6h683C1039.4,1087.7,1035.8,746.8,696.7,744.2z"/>
<path class="st0" d="M204.4,1080H12.1c0,0,195.2-415.5,684.3-409.6s685.1,409.6,685.1,409.6h-193.6c0,0-127.1-380.9-491.1-385.1
	c-7.5-0.1,7.7-0.2,0,0c-39.8,1.2-76.5,5.8-110.3,13.1c-3.2,0.7-6.5,1.4-9.6,2.2C293.1,776.4,214.9,1033.1,204.4,1080z"/>
</svg>
